
<svg xmlns="http://www.w3.org/2000/svg" width="64" height="64" shape-rendering="crispEdges">
<rect x="24" y="8" width="1" height="1" fill="#ffffff" />
<rect x="25" y="8" width="1" height="1" fill="#ffffff" />
<rect x="26" y="8" width="1" height="1" fill="#ffffff" />
<rect x="27" y="8" width="1" height="1" fill="#ffffff" />
<rect x="28" y="8" width="1" height="1" fill="#ffffff" />
<rect x="29" y="8" width="1" height="1" fill="#ffffff" />
<rect x="30" y="8" width="1" height="1" fill="#ffffff" />
<rect x="31" y="8" width="1" height="1" fill="#ffffff" />
<rect x="32" y="8" width="1" height="1" fill="#ffffff" />
<rect x="33" y="8" width="1" height="1" fill="#ffffff" />
<rect x="34" y="8" width="1" height="1" fill="#ffffff" />
<rect x="35" y="8" width="1" height="1" fill="#ffffff" />
<rect x="36" y="8" width="1" height="1" fill="#ffffff" />
<rect x="37" y="8" width="1" height="1" fill="#ffffff" />
<rect x="38" y="8" width="1" height="1" fill="#ffffff" />
<rect x="39" y="8" width="1" height="1" fill="#ffffff" />
<rect x="24" y="9" width="1" height="1" fill="#ffffff" />
<rect x="25" y="9" width="1" height="1" fill="#ffffff" />
<rect x="26" y="9" width="1" height="1" fill="#ffffff" />
<rect x="27" y="9" width="1" height="1" fill="#ffffff" />
<rect x="28" y="9" width="1" height="1" fill="#ffffff" />
<rect x="29" y="9" width="1" height="1" fill="#ffffff" />
<rect x="30" y="9" width="1" height="1" fill="#ffffff" />
<rect x="31" y="9" width="1" height="1" fill="#ffffff" />
<rect x="32" y="9" width="1" height="1" fill="#ffffff" />
<rect x="33" y="9" width="1" height="1" fill="#ffffff" />
<rect x="34" y="9" width="1" height="1" fill="#ffffff" />
<rect x="35" y="9" width="1" height="1" fill="#ffffff" />
<rect x="36" y="9" width="1" height="1" fill="#ffffff" />
<rect x="37" y="9" width="1" height="1" fill="#ffffff" />
<rect x="38" y="9" width="1" height="1" fill="#ffffff" />
<rect x="39" y="9" width="1" height="1" fill="#ffffff" />
<rect x="24" y="10" width="1" height="1" fill="#ffffff" />
<rect x="25" y="10" width="1" height="1" fill="#ffffff" />
<rect x="26" y="10" width="1" height="1" fill="#ffffff" />
<rect x="27" y="10" width="1" height="1" fill="#ffffff" />
<rect x="28" y="10" width="1" height="1" fill="#ffffff" />
<rect x="29" y="10" width="1" height="1" fill="#ffffff" />
<rect x="30" y="10" width="1" height="1" fill="#ffffff" />
<rect x="31" y="10" width="1" height="1" fill="#ffffff" />
<rect x="32" y="10" width="1" height="1" fill="#ffffff" />
<rect x="33" y="10" width="1" height="1" fill="#ffffff" />
<rect x="34" y="10" width="1" height="1" fill="#ffffff" />
<rect x="35" y="10" width="1" height="1" fill="#ffffff" />
<rect x="36" y="10" width="1" height="1" fill="#ffffff" />
<rect x="37" y="10" width="1" height="1" fill="#ffffff" />
<rect x="38" y="10" width="1" height="1" fill="#ffffff" />
<rect x="39" y="10" width="1" height="1" fill="#ffffff" />
<rect x="24" y="11" width="1" height="1" fill="#ffffff" />
<rect x="25" y="11" width="1" height="1" fill="#ffffff" />
<rect x="26" y="11" width="1" height="1" fill="#ffffff" />
<rect x="27" y="11" width="1" height="1" fill="#ffffff" />
<rect x="28" y="11" width="1" height="1" fill="#ffffff" />
<rect x="29" y="11" width="1" height="1" fill="#ffffff" />
<rect x="30" y="11" width="1" height="1" fill="#ffffff" />
<rect x="31" y="11" width="1" height="1" fill="#ffffff" />
<rect x="32" y="11" width="1" height="1" fill="#ffffff" />
<rect x="33" y="11" width="1" height="1" fill="#ffffff" />
<rect x="34" y="11" width="1" height="1" fill="#ffffff" />
<rect x="35" y="11" width="1" height="1" fill="#ffffff" />
<rect x="36" y="11" width="1" height="1" fill="#ffffff" />
<rect x="37" y="11" width="1" height="1" fill="#ffffff" />
<rect x="38" y="11" width="1" height="1" fill="#ffffff" />
<rect x="39" y="11" width="1" height="1" fill="#ffffff" />
<rect x="20" y="12" width="1" height="1" fill="#ffffff" />
<rect x="21" y="12" width="1" height="1" fill="#ffffff" />
<rect x="22" y="12" width="1" height="1" fill="#ffffff" />
<rect x="23" y="12" width="1" height="1" fill="#ffffff" />
<rect x="24" y="12" width="1" height="1" fill="#ffffff" />
<rect x="25" y="12" width="1" height="1" fill="#ffffff" />
<rect x="26" y="12" width="1" height="1" fill="#ffffff" />
<rect x="27" y="12" width="1" height="1" fill="#ffffff" />
<rect x="28" y="12" width="1" height="1" fill="#ffffff" />
<rect x="29" y="12" width="1" height="1" fill="#ffffff" />
<rect x="30" y="12" width="1" height="1" fill="#ffffff" />
<rect x="31" y="12" width="1" height="1" fill="#ffffff" />
<rect x="32" y="12" width="1" height="1" fill="#ffffff" />
<rect x="33" y="12" width="1" height="1" fill="#ffffff" />
<rect x="34" y="12" width="1" height="1" fill="#ffffff" />
<rect x="35" y="12" width="1" height="1" fill="#ffffff" />
<rect x="36" y="12" width="1" height="1" fill="#ffffff" />
<rect x="37" y="12" width="1" height="1" fill="#ffffff" />
<rect x="38" y="12" width="1" height="1" fill="#ffffff" />
<rect x="39" y="12" width="1" height="1" fill="#ffffff" />
<rect x="40" y="12" width="1" height="1" fill="#ffffff" />
<rect x="41" y="12" width="1" height="1" fill="#ffffff" />
<rect x="42" y="12" width="1" height="1" fill="#ffffff" />
<rect x="43" y="12" width="1" height="1" fill="#ffffff" />
<rect x="20" y="13" width="1" height="1" fill="#ffffff" />
<rect x="21" y="13" width="1" height="1" fill="#ffffff" />
<rect x="22" y="13" width="1" height="1" fill="#ffffff" />
<rect x="23" y="13" width="1" height="1" fill="#ffffff" />
<rect x="24" y="13" width="1" height="1" fill="#ffffff" />
<rect x="25" y="13" width="1" height="1" fill="#ffffff" />
<rect x="26" y="13" width="1" height="1" fill="#ffffff" />
<rect x="27" y="13" width="1" height="1" fill="#ffffff" />
<rect x="28" y="13" width="1" height="1" fill="#ffffff" />
<rect x="29" y="13" width="1" height="1" fill="#ffffff" />
<rect x="30" y="13" width="1" height="1" fill="#ffffff" />
<rect x="31" y="13" width="1" height="1" fill="#ffffff" />
<rect x="32" y="13" width="1" height="1" fill="#ffffff" />
<rect x="33" y="13" width="1" height="1" fill="#ffffff" />
<rect x="34" y="13" width="1" height="1" fill="#ffffff" />
<rect x="35" y="13" width="1" height="1" fill="#ffffff" />
<rect x="36" y="13" width="1" height="1" fill="#ffffff" />
<rect x="37" y="13" width="1" height="1" fill="#ffffff" />
<rect x="38" y="13" width="1" height="1" fill="#ffffff" />
<rect x="39" y="13" width="1" height="1" fill="#ffffff" />
<rect x="40" y="13" width="1" height="1" fill="#ffffff" />
<rect x="41" y="13" width="1" height="1" fill="#ffffff" />
<rect x="42" y="13" width="1" height="1" fill="#ffffff" />
<rect x="43" y="13" width="1" height="1" fill="#ffffff" />
<rect x="20" y="14" width="1" height="1" fill="#ffffff" />
<rect x="21" y="14" width="1" height="1" fill="#ffffff" />
<rect x="22" y="14" width="1" height="1" fill="#ffffff" />
<rect x="23" y="14" width="1" height="1" fill="#ffffff" />
<rect x="24" y="14" width="1" height="1" fill="#ffffff" />
<rect x="25" y="14" width="1" height="1" fill="#ffffff" />
<rect x="26" y="14" width="1" height="1" fill="#ffffff" />
<rect x="27" y="14" width="1" height="1" fill="#ffffff" />
<rect x="28" y="14" width="1" height="1" fill="#ffffff" />
<rect x="29" y="14" width="1" height="1" fill="#ffffff" />
<rect x="30" y="14" width="1" height="1" fill="#ffffff" />
<rect x="31" y="14" width="1" height="1" fill="#ffffff" />
<rect x="32" y="14" width="1" height="1" fill="#ffffff" />
<rect x="33" y="14" width="1" height="1" fill="#ffffff" />
<rect x="34" y="14" width="1" height="1" fill="#ffffff" />
<rect x="35" y="14" width="1" height="1" fill="#ffffff" />
<rect x="36" y="14" width="1" height="1" fill="#ffffff" />
<rect x="37" y="14" width="1" height="1" fill="#ffffff" />
<rect x="38" y="14" width="1" height="1" fill="#ffffff" />
<rect x="39" y="14" width="1" height="1" fill="#ffffff" />
<rect x="40" y="14" width="1" height="1" fill="#ffffff" />
<rect x="41" y="14" width="1" height="1" fill="#ffffff" />
<rect x="42" y="14" width="1" height="1" fill="#ffffff" />
<rect x="43" y="14" width="1" height="1" fill="#ffffff" />
<rect x="20" y="15" width="1" height="1" fill="#ffffff" />
<rect x="21" y="15" width="1" height="1" fill="#ffffff" />
<rect x="22" y="15" width="1" height="1" fill="#ffffff" />
<rect x="23" y="15" width="1" height="1" fill="#ffffff" />
<rect x="24" y="15" width="1" height="1" fill="#ffffff" />
<rect x="25" y="15" width="1" height="1" fill="#ffffff" />
<rect x="26" y="15" width="1" height="1" fill="#ffffff" />
<rect x="27" y="15" width="1" height="1" fill="#ffffff" />
<rect x="28" y="15" width="1" height="1" fill="#ffffff" />
<rect x="29" y="15" width="1" height="1" fill="#ffffff" />
<rect x="30" y="15" width="1" height="1" fill="#ffffff" />
<rect x="31" y="15" width="1" height="1" fill="#ffffff" />
<rect x="32" y="15" width="1" height="1" fill="#ffffff" />
<rect x="33" y="15" width="1" height="1" fill="#ffffff" />
<rect x="34" y="15" width="1" height="1" fill="#ffffff" />
<rect x="35" y="15" width="1" height="1" fill="#ffffff" />
<rect x="36" y="15" width="1" height="1" fill="#ffffff" />
<rect x="37" y="15" width="1" height="1" fill="#ffffff" />
<rect x="38" y="15" width="1" height="1" fill="#ffffff" />
<rect x="39" y="15" width="1" height="1" fill="#ffffff" />
<rect x="40" y="15" width="1" height="1" fill="#ffffff" />
<rect x="41" y="15" width="1" height="1" fill="#ffffff" />
<rect x="42" y="15" width="1" height="1" fill="#ffffff" />
<rect x="43" y="15" width="1" height="1" fill="#ffffff" />
<rect x="16" y="16" width="1" height="1" fill="#ffffff" />
<rect x="17" y="16" width="1" height="1" fill="#ffffff" />
<rect x="18" y="16" width="1" height="1" fill="#ffffff" />
<rect x="19" y="16" width="1" height="1" fill="#ffffff" />
<rect x="20" y="16" width="1" height="1" fill="#ffffff" />
<rect x="21" y="16" width="1" height="1" fill="#ffffff" />
<rect x="22" y="16" width="1" height="1" fill="#ffffff" />
<rect x="23" y="16" width="1" height="1" fill="#ffffff" />
<rect x="24" y="16" width="1" height="1" fill="#ffffff" />
<rect x="25" y="16" width="1" height="1" fill="#ffffff" />
<rect x="26" y="16" width="1" height="1" fill="#ffffff" />
<rect x="27" y="16" width="1" height="1" fill="#ffffff" />
<rect x="36" y="16" width="1" height="1" fill="#ffffff" />
<rect x="37" y="16" width="1" height="1" fill="#ffffff" />
<rect x="38" y="16" width="1" height="1" fill="#ffffff" />
<rect x="39" y="16" width="1" height="1" fill="#ffffff" />
<rect x="40" y="16" width="1" height="1" fill="#ffffff" />
<rect x="41" y="16" width="1" height="1" fill="#ffffff" />
<rect x="42" y="16" width="1" height="1" fill="#ffffff" />
<rect x="43" y="16" width="1" height="1" fill="#ffffff" />
<rect x="44" y="16" width="1" height="1" fill="#ffffff" />
<rect x="45" y="16" width="1" height="1" fill="#ffffff" />
<rect x="46" y="16" width="1" height="1" fill="#ffffff" />
<rect x="47" y="16" width="1" height="1" fill="#ffffff" />
<rect x="16" y="17" width="1" height="1" fill="#ffffff" />
<rect x="17" y="17" width="1" height="1" fill="#ffffff" />
<rect x="18" y="17" width="1" height="1" fill="#ffffff" />
<rect x="19" y="17" width="1" height="1" fill="#ffffff" />
<rect x="20" y="17" width="1" height="1" fill="#ffffff" />
<rect x="21" y="17" width="1" height="1" fill="#ffffff" />
<rect x="22" y="17" width="1" height="1" fill="#ffffff" />
<rect x="23" y="17" width="1" height="1" fill="#ffffff" />
<rect x="24" y="17" width="1" height="1" fill="#ffffff" />
<rect x="25" y="17" width="1" height="1" fill="#ffffff" />
<rect x="26" y="17" width="1" height="1" fill="#ffffff" />
<rect x="27" y="17" width="1" height="1" fill="#ffffff" />
<rect x="36" y="17" width="1" height="1" fill="#ffffff" />
<rect x="37" y="17" width="1" height="1" fill="#ffffff" />
<rect x="38" y="17" width="1" height="1" fill="#ffffff" />
<rect x="39" y="17" width="1" height="1" fill="#ffffff" />
<rect x="40" y="17" width="1" height="1" fill="#ffffff" />
<rect x="41" y="17" width="1" height="1" fill="#ffffff" />
<rect x="42" y="17" width="1" height="1" fill="#ffffff" />
<rect x="43" y="17" width="1" height="1" fill="#ffffff" />
<rect x="44" y="17" width="1" height="1" fill="#ffffff" />
<rect x="45" y="17" width="1" height="1" fill="#ffffff" />
<rect x="46" y="17" width="1" height="1" fill="#ffffff" />
<rect x="47" y="17" width="1" height="1" fill="#ffffff" />
<rect x="16" y="18" width="1" height="1" fill="#ffffff" />
<rect x="17" y="18" width="1" height="1" fill="#ffffff" />
<rect x="18" y="18" width="1" height="1" fill="#ffffff" />
<rect x="19" y="18" width="1" height="1" fill="#ffffff" />
<rect x="20" y="18" width="1" height="1" fill="#ffffff" />
<rect x="21" y="18" width="1" height="1" fill="#ffffff" />
<rect x="22" y="18" width="1" height="1" fill="#ffffff" />
<rect x="23" y="18" width="1" height="1" fill="#ffffff" />
<rect x="24" y="18" width="1" height="1" fill="#ffffff" />
<rect x="25" y="18" width="1" height="1" fill="#ffffff" />
<rect x="26" y="18" width="1" height="1" fill="#ffffff" />
<rect x="27" y="18" width="1" height="1" fill="#ffffff" />
<rect x="36" y="18" width="1" height="1" fill="#ffffff" />
<rect x="37" y="18" width="1" height="1" fill="#ffffff" />
<rect x="38" y="18" width="1" height="1" fill="#ffffff" />
<rect x="39" y="18" width="1" height="1" fill="#ffffff" />
<rect x="40" y="18" width="1" height="1" fill="#ffffff" />
<rect x="41" y="18" width="1" height="1" fill="#ffffff" />
<rect x="42" y="18" width="1" height="1" fill="#ffffff" />
<rect x="43" y="18" width="1" height="1" fill="#ffffff" />
<rect x="44" y="18" width="1" height="1" fill="#ffffff" />
<rect x="45" y="18" width="1" height="1" fill="#ffffff" />
<rect x="46" y="18" width="1" height="1" fill="#ffffff" />
<rect x="47" y="18" width="1" height="1" fill="#ffffff" />
<rect x="16" y="19" width="1" height="1" fill="#ffffff" />
<rect x="17" y="19" width="1" height="1" fill="#ffffff" />
<rect x="18" y="19" width="1" height="1" fill="#ffffff" />
<rect x="19" y="19" width="1" height="1" fill="#ffffff" />
<rect x="20" y="19" width="1" height="1" fill="#ffffff" />
<rect x="21" y="19" width="1" height="1" fill="#ffffff" />
<rect x="22" y="19" width="1" height="1" fill="#ffffff" />
<rect x="23" y="19" width="1" height="1" fill="#ffffff" />
<rect x="24" y="19" width="1" height="1" fill="#ffffff" />
<rect x="25" y="19" width="1" height="1" fill="#ffffff" />
<rect x="26" y="19" width="1" height="1" fill="#ffffff" />
<rect x="27" y="19" width="1" height="1" fill="#ffffff" />
<rect x="36" y="19" width="1" height="1" fill="#ffffff" />
<rect x="37" y="19" width="1" height="1" fill="#ffffff" />
<rect x="38" y="19" width="1" height="1" fill="#ffffff" />
<rect x="39" y="19" width="1" height="1" fill="#ffffff" />
<rect x="40" y="19" width="1" height="1" fill="#ffffff" />
<rect x="41" y="19" width="1" height="1" fill="#ffffff" />
<rect x="42" y="19" width="1" height="1" fill="#ffffff" />
<rect x="43" y="19" width="1" height="1" fill="#ffffff" />
<rect x="44" y="19" width="1" height="1" fill="#ffffff" />
<rect x="45" y="19" width="1" height="1" fill="#ffffff" />
<rect x="46" y="19" width="1" height="1" fill="#ffffff" />
<rect x="47" y="19" width="1" height="1" fill="#ffffff" />
<rect x="16" y="20" width="1" height="1" fill="#ffffff" />
<rect x="17" y="20" width="1" height="1" fill="#ffffff" />
<rect x="18" y="20" width="1" height="1" fill="#ffffff" />
<rect x="19" y="20" width="1" height="1" fill="#ffffff" />
<rect x="20" y="20" width="1" height="1" fill="#ffffff" />
<rect x="21" y="20" width="1" height="1" fill="#ffffff" />
<rect x="22" y="20" width="1" height="1" fill="#ffffff" />
<rect x="23" y="20" width="1" height="1" fill="#ffffff" />
<rect x="24" y="20" width="1" height="1" fill="#ffffff" />
<rect x="25" y="20" width="1" height="1" fill="#ffffff" />
<rect x="26" y="20" width="1" height="1" fill="#ffffff" />
<rect x="27" y="20" width="1" height="1" fill="#ffffff" />
<rect x="36" y="20" width="1" height="1" fill="#ffffff" />
<rect x="37" y="20" width="1" height="1" fill="#ffffff" />
<rect x="38" y="20" width="1" height="1" fill="#ffffff" />
<rect x="39" y="20" width="1" height="1" fill="#ffffff" />
<rect x="40" y="20" width="1" height="1" fill="#ffffff" />
<rect x="41" y="20" width="1" height="1" fill="#ffffff" />
<rect x="42" y="20" width="1" height="1" fill="#ffffff" />
<rect x="43" y="20" width="1" height="1" fill="#ffffff" />
<rect x="44" y="20" width="1" height="1" fill="#ffffff" />
<rect x="45" y="20" width="1" height="1" fill="#ffffff" />
<rect x="46" y="20" width="1" height="1" fill="#ffffff" />
<rect x="47" y="20" width="1" height="1" fill="#ffffff" />
<rect x="16" y="21" width="1" height="1" fill="#ffffff" />
<rect x="17" y="21" width="1" height="1" fill="#ffffff" />
<rect x="18" y="21" width="1" height="1" fill="#ffffff" />
<rect x="19" y="21" width="1" height="1" fill="#ffffff" />
<rect x="20" y="21" width="1" height="1" fill="#ffffff" />
<rect x="21" y="21" width="1" height="1" fill="#ffffff" />
<rect x="22" y="21" width="1" height="1" fill="#ffffff" />
<rect x="23" y="21" width="1" height="1" fill="#ffffff" />
<rect x="24" y="21" width="1" height="1" fill="#ffffff" />
<rect x="25" y="21" width="1" height="1" fill="#ffffff" />
<rect x="26" y="21" width="1" height="1" fill="#ffffff" />
<rect x="27" y="21" width="1" height="1" fill="#ffffff" />
<rect x="36" y="21" width="1" height="1" fill="#ffffff" />
<rect x="37" y="21" width="1" height="1" fill="#ffffff" />
<rect x="38" y="21" width="1" height="1" fill="#ffffff" />
<rect x="39" y="21" width="1" height="1" fill="#ffffff" />
<rect x="40" y="21" width="1" height="1" fill="#ffffff" />
<rect x="41" y="21" width="1" height="1" fill="#ffffff" />
<rect x="42" y="21" width="1" height="1" fill="#ffffff" />
<rect x="43" y="21" width="1" height="1" fill="#ffffff" />
<rect x="44" y="21" width="1" height="1" fill="#ffffff" />
<rect x="45" y="21" width="1" height="1" fill="#ffffff" />
<rect x="46" y="21" width="1" height="1" fill="#ffffff" />
<rect x="47" y="21" width="1" height="1" fill="#ffffff" />
<rect x="16" y="22" width="1" height="1" fill="#ffffff" />
<rect x="17" y="22" width="1" height="1" fill="#ffffff" />
<rect x="18" y="22" width="1" height="1" fill="#ffffff" />
<rect x="19" y="22" width="1" height="1" fill="#ffffff" />
<rect x="20" y="22" width="1" height="1" fill="#ffffff" />
<rect x="21" y="22" width="1" height="1" fill="#ffffff" />
<rect x="22" y="22" width="1" height="1" fill="#ffffff" />
<rect x="23" y="22" width="1" height="1" fill="#ffffff" />
<rect x="24" y="22" width="1" height="1" fill="#ffffff" />
<rect x="25" y="22" width="1" height="1" fill="#ffffff" />
<rect x="26" y="22" width="1" height="1" fill="#ffffff" />
<rect x="27" y="22" width="1" height="1" fill="#ffffff" />
<rect x="36" y="22" width="1" height="1" fill="#ffffff" />
<rect x="37" y="22" width="1" height="1" fill="#ffffff" />
<rect x="38" y="22" width="1" height="1" fill="#ffffff" />
<rect x="39" y="22" width="1" height="1" fill="#ffffff" />
<rect x="40" y="22" width="1" height="1" fill="#ffffff" />
<rect x="41" y="22" width="1" height="1" fill="#ffffff" />
<rect x="42" y="22" width="1" height="1" fill="#ffffff" />
<rect x="43" y="22" width="1" height="1" fill="#ffffff" />
<rect x="44" y="22" width="1" height="1" fill="#ffffff" />
<rect x="45" y="22" width="1" height="1" fill="#ffffff" />
<rect x="46" y="22" width="1" height="1" fill="#ffffff" />
<rect x="47" y="22" width="1" height="1" fill="#ffffff" />
<rect x="16" y="23" width="1" height="1" fill="#ffffff" />
<rect x="17" y="23" width="1" height="1" fill="#ffffff" />
<rect x="18" y="23" width="1" height="1" fill="#ffffff" />
<rect x="19" y="23" width="1" height="1" fill="#ffffff" />
<rect x="20" y="23" width="1" height="1" fill="#ffffff" />
<rect x="21" y="23" width="1" height="1" fill="#ffffff" />
<rect x="22" y="23" width="1" height="1" fill="#ffffff" />
<rect x="23" y="23" width="1" height="1" fill="#ffffff" />
<rect x="24" y="23" width="1" height="1" fill="#ffffff" />
<rect x="25" y="23" width="1" height="1" fill="#ffffff" />
<rect x="26" y="23" width="1" height="1" fill="#ffffff" />
<rect x="27" y="23" width="1" height="1" fill="#ffffff" />
<rect x="36" y="23" width="1" height="1" fill="#ffffff" />
<rect x="37" y="23" width="1" height="1" fill="#ffffff" />
<rect x="38" y="23" width="1" height="1" fill="#ffffff" />
<rect x="39" y="23" width="1" height="1" fill="#ffffff" />
<rect x="40" y="23" width="1" height="1" fill="#ffffff" />
<rect x="41" y="23" width="1" height="1" fill="#ffffff" />
<rect x="42" y="23" width="1" height="1" fill="#ffffff" />
<rect x="43" y="23" width="1" height="1" fill="#ffffff" />
<rect x="44" y="23" width="1" height="1" fill="#ffffff" />
<rect x="45" y="23" width="1" height="1" fill="#ffffff" />
<rect x="46" y="23" width="1" height="1" fill="#ffffff" />
<rect x="47" y="23" width="1" height="1" fill="#ffffff" />
<rect x="16" y="24" width="1" height="1" fill="#ffffff" />
<rect x="17" y="24" width="1" height="1" fill="#ffffff" />
<rect x="18" y="24" width="1" height="1" fill="#ffffff" />
<rect x="19" y="24" width="1" height="1" fill="#ffffff" />
<rect x="20" y="24" width="1" height="1" fill="#ffffff" />
<rect x="21" y="24" width="1" height="1" fill="#ffffff" />
<rect x="22" y="24" width="1" height="1" fill="#ffffff" />
<rect x="23" y="24" width="1" height="1" fill="#ffffff" />
<rect x="24" y="24" width="1" height="1" fill="#ffffff" />
<rect x="25" y="24" width="1" height="1" fill="#ffffff" />
<rect x="26" y="24" width="1" height="1" fill="#ffffff" />
<rect x="27" y="24" width="1" height="1" fill="#ffffff" />
<rect x="36" y="24" width="1" height="1" fill="#ffffff" />
<rect x="37" y="24" width="1" height="1" fill="#ffffff" />
<rect x="38" y="24" width="1" height="1" fill="#ffffff" />
<rect x="39" y="24" width="1" height="1" fill="#ffffff" />
<rect x="40" y="24" width="1" height="1" fill="#ffffff" />
<rect x="41" y="24" width="1" height="1" fill="#ffffff" />
<rect x="42" y="24" width="1" height="1" fill="#ffffff" />
<rect x="43" y="24" width="1" height="1" fill="#ffffff" />
<rect x="16" y="25" width="1" height="1" fill="#ffffff" />
<rect x="17" y="25" width="1" height="1" fill="#ffffff" />
<rect x="18" y="25" width="1" height="1" fill="#ffffff" />
<rect x="19" y="25" width="1" height="1" fill="#ffffff" />
<rect x="20" y="25" width="1" height="1" fill="#ffffff" />
<rect x="21" y="25" width="1" height="1" fill="#ffffff" />
<rect x="22" y="25" width="1" height="1" fill="#ffffff" />
<rect x="23" y="25" width="1" height="1" fill="#ffffff" />
<rect x="24" y="25" width="1" height="1" fill="#ffffff" />
<rect x="25" y="25" width="1" height="1" fill="#ffffff" />
<rect x="26" y="25" width="1" height="1" fill="#ffffff" />
<rect x="27" y="25" width="1" height="1" fill="#ffffff" />
<rect x="36" y="25" width="1" height="1" fill="#ffffff" />
<rect x="37" y="25" width="1" height="1" fill="#ffffff" />
<rect x="38" y="25" width="1" height="1" fill="#ffffff" />
<rect x="39" y="25" width="1" height="1" fill="#ffffff" />
<rect x="40" y="25" width="1" height="1" fill="#ffffff" />
<rect x="41" y="25" width="1" height="1" fill="#ffffff" />
<rect x="42" y="25" width="1" height="1" fill="#ffffff" />
<rect x="43" y="25" width="1" height="1" fill="#ffffff" />
<rect x="16" y="26" width="1" height="1" fill="#ffffff" />
<rect x="17" y="26" width="1" height="1" fill="#ffffff" />
<rect x="18" y="26" width="1" height="1" fill="#ffffff" />
<rect x="19" y="26" width="1" height="1" fill="#ffffff" />
<rect x="20" y="26" width="1" height="1" fill="#ffffff" />
<rect x="21" y="26" width="1" height="1" fill="#ffffff" />
<rect x="22" y="26" width="1" height="1" fill="#ffffff" />
<rect x="23" y="26" width="1" height="1" fill="#ffffff" />
<rect x="24" y="26" width="1" height="1" fill="#ffffff" />
<rect x="25" y="26" width="1" height="1" fill="#ffffff" />
<rect x="26" y="26" width="1" height="1" fill="#ffffff" />
<rect x="27" y="26" width="1" height="1" fill="#ffffff" />
<rect x="36" y="26" width="1" height="1" fill="#ffffff" />
<rect x="37" y="26" width="1" height="1" fill="#ffffff" />
<rect x="38" y="26" width="1" height="1" fill="#ffffff" />
<rect x="39" y="26" width="1" height="1" fill="#ffffff" />
<rect x="40" y="26" width="1" height="1" fill="#ffffff" />
<rect x="41" y="26" width="1" height="1" fill="#ffffff" />
<rect x="42" y="26" width="1" height="1" fill="#ffffff" />
<rect x="43" y="26" width="1" height="1" fill="#ffffff" />
<rect x="16" y="27" width="1" height="1" fill="#ffffff" />
<rect x="17" y="27" width="1" height="1" fill="#ffffff" />
<rect x="18" y="27" width="1" height="1" fill="#ffffff" />
<rect x="19" y="27" width="1" height="1" fill="#ffffff" />
<rect x="20" y="27" width="1" height="1" fill="#ffffff" />
<rect x="21" y="27" width="1" height="1" fill="#ffffff" />
<rect x="22" y="27" width="1" height="1" fill="#ffffff" />
<rect x="23" y="27" width="1" height="1" fill="#ffffff" />
<rect x="24" y="27" width="1" height="1" fill="#ffffff" />
<rect x="25" y="27" width="1" height="1" fill="#ffffff" />
<rect x="26" y="27" width="1" height="1" fill="#ffffff" />
<rect x="27" y="27" width="1" height="1" fill="#ffffff" />
<rect x="32" y="27" width="1" height="1" fill="#ffffff" />
<rect x="33" y="27" width="1" height="1" fill="#ffffff" />
<rect x="34" y="27" width="1" height="1" fill="#ffffff" />
<rect x="35" y="27" width="1" height="1" fill="#ffffff" />
<rect x="36" y="27" width="1" height="1" fill="#ffffff" />
<rect x="37" y="27" width="1" height="1" fill="#ffffff" />
<rect x="38" y="27" width="1" height="1" fill="#ffffff" />
<rect x="39" y="27" width="1" height="1" fill="#ffffff" />
<rect x="40" y="27" width="1" height="1" fill="#ffffff" />
<rect x="41" y="27" width="1" height="1" fill="#ffffff" />
<rect x="42" y="27" width="1" height="1" fill="#ffffff" />
<rect x="43" y="27" width="1" height="1" fill="#ffffff" />
<rect x="20" y="28" width="1" height="1" fill="#ffffff" />
<rect x="21" y="28" width="1" height="1" fill="#ffffff" />
<rect x="22" y="28" width="1" height="1" fill="#ffffff" />
<rect x="23" y="28" width="1" height="1" fill="#ffffff" />
<rect x="32" y="28" width="1" height="1" fill="#ffffff" />
<rect x="33" y="28" width="1" height="1" fill="#ffffff" />
<rect x="34" y="28" width="1" height="1" fill="#ffffff" />
<rect x="35" y="28" width="1" height="1" fill="#ffffff" />
<rect x="36" y="28" width="1" height="1" fill="#ffffff" />
<rect x="37" y="28" width="1" height="1" fill="#ffffff" />
<rect x="38" y="28" width="1" height="1" fill="#ffffff" />
<rect x="39" y="28" width="1" height="1" fill="#ffffff" />
<rect x="20" y="29" width="1" height="1" fill="#ffffff" />
<rect x="21" y="29" width="1" height="1" fill="#ffffff" />
<rect x="22" y="29" width="1" height="1" fill="#ffffff" />
<rect x="23" y="29" width="1" height="1" fill="#ffffff" />
<rect x="32" y="29" width="1" height="1" fill="#ffffff" />
<rect x="33" y="29" width="1" height="1" fill="#ffffff" />
<rect x="34" y="29" width="1" height="1" fill="#ffffff" />
<rect x="35" y="29" width="1" height="1" fill="#ffffff" />
<rect x="36" y="29" width="1" height="1" fill="#ffffff" />
<rect x="37" y="29" width="1" height="1" fill="#ffffff" />
<rect x="38" y="29" width="1" height="1" fill="#ffffff" />
<rect x="39" y="29" width="1" height="1" fill="#ffffff" />
<rect x="20" y="30" width="1" height="1" fill="#ffffff" />
<rect x="21" y="30" width="1" height="1" fill="#ffffff" />
<rect x="22" y="30" width="1" height="1" fill="#ffffff" />
<rect x="23" y="30" width="1" height="1" fill="#ffffff" />
<rect x="32" y="30" width="1" height="1" fill="#ffffff" />
<rect x="33" y="30" width="1" height="1" fill="#ffffff" />
<rect x="34" y="30" width="1" height="1" fill="#ffffff" />
<rect x="35" y="30" width="1" height="1" fill="#ffffff" />
<rect x="36" y="30" width="1" height="1" fill="#ffffff" />
<rect x="37" y="30" width="1" height="1" fill="#ffffff" />
<rect x="38" y="30" width="1" height="1" fill="#ffffff" />
<rect x="39" y="30" width="1" height="1" fill="#ffffff" />
<rect x="20" y="31" width="1" height="1" fill="#ffffff" />
<rect x="21" y="31" width="1" height="1" fill="#ffffff" />
<rect x="22" y="31" width="1" height="1" fill="#ffffff" />
<rect x="23" y="31" width="1" height="1" fill="#ffffff" />
<rect x="28" y="31" width="1" height="1" fill="#ffffff" />
<rect x="29" y="31" width="1" height="1" fill="#ffffff" />
<rect x="30" y="31" width="1" height="1" fill="#ffffff" />
<rect x="31" y="31" width="1" height="1" fill="#ffffff" />
<rect x="32" y="31" width="1" height="1" fill="#ffffff" />
<rect x="33" y="31" width="1" height="1" fill="#ffffff" />
<rect x="34" y="31" width="1" height="1" fill="#ffffff" />
<rect x="35" y="31" width="1" height="1" fill="#ffffff" />
<rect x="36" y="31" width="1" height="1" fill="#ffffff" />
<rect x="37" y="31" width="1" height="1" fill="#ffffff" />
<rect x="38" y="31" width="1" height="1" fill="#ffffff" />
<rect x="39" y="31" width="1" height="1" fill="#ffffff" />
<rect x="28" y="32" width="1" height="1" fill="#ffffff" />
<rect x="29" y="32" width="1" height="1" fill="#ffffff" />
<rect x="30" y="32" width="1" height="1" fill="#ffffff" />
<rect x="31" y="32" width="1" height="1" fill="#ffffff" />
<rect x="32" y="32" width="1" height="1" fill="#ffffff" />
<rect x="33" y="32" width="1" height="1" fill="#ffffff" />
<rect x="34" y="32" width="1" height="1" fill="#ffffff" />
<rect x="35" y="32" width="1" height="1" fill="#ffffff" />
<rect x="36" y="32" width="1" height="1" fill="#ffffff" />
<rect x="37" y="32" width="1" height="1" fill="#ffffff" />
<rect x="38" y="32" width="1" height="1" fill="#ffffff" />
<rect x="39" y="32" width="1" height="1" fill="#ffffff" />
<rect x="28" y="33" width="1" height="1" fill="#ffffff" />
<rect x="29" y="33" width="1" height="1" fill="#ffffff" />
<rect x="30" y="33" width="1" height="1" fill="#ffffff" />
<rect x="31" y="33" width="1" height="1" fill="#ffffff" />
<rect x="32" y="33" width="1" height="1" fill="#ffffff" />
<rect x="33" y="33" width="1" height="1" fill="#ffffff" />
<rect x="34" y="33" width="1" height="1" fill="#ffffff" />
<rect x="35" y="33" width="1" height="1" fill="#ffffff" />
<rect x="36" y="33" width="1" height="1" fill="#ffffff" />
<rect x="37" y="33" width="1" height="1" fill="#ffffff" />
<rect x="38" y="33" width="1" height="1" fill="#ffffff" />
<rect x="39" y="33" width="1" height="1" fill="#ffffff" />
<rect x="28" y="34" width="1" height="1" fill="#ffffff" />
<rect x="29" y="34" width="1" height="1" fill="#ffffff" />
<rect x="30" y="34" width="1" height="1" fill="#ffffff" />
<rect x="31" y="34" width="1" height="1" fill="#ffffff" />
<rect x="32" y="34" width="1" height="1" fill="#ffffff" />
<rect x="33" y="34" width="1" height="1" fill="#ffffff" />
<rect x="34" y="34" width="1" height="1" fill="#ffffff" />
<rect x="35" y="34" width="1" height="1" fill="#ffffff" />
<rect x="36" y="34" width="1" height="1" fill="#ffffff" />
<rect x="37" y="34" width="1" height="1" fill="#ffffff" />
<rect x="38" y="34" width="1" height="1" fill="#ffffff" />
<rect x="39" y="34" width="1" height="1" fill="#ffffff" />
<rect x="28" y="35" width="1" height="1" fill="#ffffff" />
<rect x="29" y="35" width="1" height="1" fill="#ffffff" />
<rect x="30" y="35" width="1" height="1" fill="#ffffff" />
<rect x="31" y="35" width="1" height="1" fill="#ffffff" />
<rect x="32" y="35" width="1" height="1" fill="#ffffff" />
<rect x="33" y="35" width="1" height="1" fill="#ffffff" />
<rect x="34" y="35" width="1" height="1" fill="#ffffff" />
<rect x="35" y="35" width="1" height="1" fill="#ffffff" />
<rect x="28" y="36" width="1" height="1" fill="#ffffff" />
<rect x="29" y="36" width="1" height="1" fill="#ffffff" />
<rect x="30" y="36" width="1" height="1" fill="#ffffff" />
<rect x="31" y="36" width="1" height="1" fill="#ffffff" />
<rect x="32" y="36" width="1" height="1" fill="#ffffff" />
<rect x="33" y="36" width="1" height="1" fill="#ffffff" />
<rect x="34" y="36" width="1" height="1" fill="#ffffff" />
<rect x="35" y="36" width="1" height="1" fill="#ffffff" />
<rect x="28" y="37" width="1" height="1" fill="#ffffff" />
<rect x="29" y="37" width="1" height="1" fill="#ffffff" />
<rect x="30" y="37" width="1" height="1" fill="#ffffff" />
<rect x="31" y="37" width="1" height="1" fill="#ffffff" />
<rect x="32" y="37" width="1" height="1" fill="#ffffff" />
<rect x="33" y="37" width="1" height="1" fill="#ffffff" />
<rect x="34" y="37" width="1" height="1" fill="#ffffff" />
<rect x="35" y="37" width="1" height="1" fill="#ffffff" />
<rect x="28" y="38" width="1" height="1" fill="#ffffff" />
<rect x="29" y="38" width="1" height="1" fill="#ffffff" />
<rect x="30" y="38" width="1" height="1" fill="#ffffff" />
<rect x="31" y="38" width="1" height="1" fill="#ffffff" />
<rect x="32" y="38" width="1" height="1" fill="#ffffff" />
<rect x="33" y="38" width="1" height="1" fill="#ffffff" />
<rect x="34" y="38" width="1" height="1" fill="#ffffff" />
<rect x="35" y="38" width="1" height="1" fill="#ffffff" />
<rect x="28" y="39" width="1" height="1" fill="#ffffff" />
<rect x="29" y="39" width="1" height="1" fill="#ffffff" />
<rect x="30" y="39" width="1" height="1" fill="#ffffff" />
<rect x="31" y="39" width="1" height="1" fill="#ffffff" />
<rect x="32" y="39" width="1" height="1" fill="#ffffff" />
<rect x="33" y="39" width="1" height="1" fill="#ffffff" />
<rect x="34" y="39" width="1" height="1" fill="#ffffff" />
<rect x="35" y="39" width="1" height="1" fill="#ffffff" />
<rect x="28" y="40" width="1" height="1" fill="#ffffff" />
<rect x="29" y="40" width="1" height="1" fill="#ffffff" />
<rect x="30" y="40" width="1" height="1" fill="#ffffff" />
<rect x="31" y="40" width="1" height="1" fill="#ffffff" />
<rect x="32" y="40" width="1" height="1" fill="#ffffff" />
<rect x="33" y="40" width="1" height="1" fill="#ffffff" />
<rect x="34" y="40" width="1" height="1" fill="#ffffff" />
<rect x="35" y="40" width="1" height="1" fill="#ffffff" />
<rect x="28" y="41" width="1" height="1" fill="#ffffff" />
<rect x="29" y="41" width="1" height="1" fill="#ffffff" />
<rect x="30" y="41" width="1" height="1" fill="#ffffff" />
<rect x="31" y="41" width="1" height="1" fill="#ffffff" />
<rect x="32" y="41" width="1" height="1" fill="#ffffff" />
<rect x="33" y="41" width="1" height="1" fill="#ffffff" />
<rect x="34" y="41" width="1" height="1" fill="#ffffff" />
<rect x="35" y="41" width="1" height="1" fill="#ffffff" />
<rect x="28" y="42" width="1" height="1" fill="#ffffff" />
<rect x="29" y="42" width="1" height="1" fill="#ffffff" />
<rect x="30" y="42" width="1" height="1" fill="#ffffff" />
<rect x="31" y="42" width="1" height="1" fill="#ffffff" />
<rect x="32" y="42" width="1" height="1" fill="#ffffff" />
<rect x="33" y="42" width="1" height="1" fill="#ffffff" />
<rect x="34" y="42" width="1" height="1" fill="#ffffff" />
<rect x="35" y="42" width="1" height="1" fill="#ffffff" />
<rect x="28" y="43" width="1" height="1" fill="#ffffff" />
<rect x="29" y="43" width="1" height="1" fill="#ffffff" />
<rect x="30" y="43" width="1" height="1" fill="#ffffff" />
<rect x="31" y="43" width="1" height="1" fill="#ffffff" />
<rect x="32" y="43" width="1" height="1" fill="#ffffff" />
<rect x="33" y="43" width="1" height="1" fill="#ffffff" />
<rect x="34" y="43" width="1" height="1" fill="#ffffff" />
<rect x="35" y="43" width="1" height="1" fill="#ffffff" />
<rect x="28" y="48" width="1" height="1" fill="#ffffff" />
<rect x="29" y="48" width="1" height="1" fill="#ffffff" />
<rect x="30" y="48" width="1" height="1" fill="#ffffff" />
<rect x="31" y="48" width="1" height="1" fill="#ffffff" />
<rect x="32" y="48" width="1" height="1" fill="#ffffff" />
<rect x="33" y="48" width="1" height="1" fill="#ffffff" />
<rect x="34" y="48" width="1" height="1" fill="#ffffff" />
<rect x="35" y="48" width="1" height="1" fill="#ffffff" />
<rect x="28" y="49" width="1" height="1" fill="#ffffff" />
<rect x="29" y="49" width="1" height="1" fill="#ffffff" />
<rect x="30" y="49" width="1" height="1" fill="#ffffff" />
<rect x="31" y="49" width="1" height="1" fill="#ffffff" />
<rect x="32" y="49" width="1" height="1" fill="#ffffff" />
<rect x="33" y="49" width="1" height="1" fill="#ffffff" />
<rect x="34" y="49" width="1" height="1" fill="#ffffff" />
<rect x="35" y="49" width="1" height="1" fill="#ffffff" />
<rect x="28" y="50" width="1" height="1" fill="#ffffff" />
<rect x="29" y="50" width="1" height="1" fill="#ffffff" />
<rect x="30" y="50" width="1" height="1" fill="#ffffff" />
<rect x="31" y="50" width="1" height="1" fill="#ffffff" />
<rect x="32" y="50" width="1" height="1" fill="#ffffff" />
<rect x="33" y="50" width="1" height="1" fill="#ffffff" />
<rect x="34" y="50" width="1" height="1" fill="#ffffff" />
<rect x="35" y="50" width="1" height="1" fill="#ffffff" />
<rect x="28" y="51" width="1" height="1" fill="#ffffff" />
<rect x="29" y="51" width="1" height="1" fill="#ffffff" />
<rect x="30" y="51" width="1" height="1" fill="#ffffff" />
<rect x="31" y="51" width="1" height="1" fill="#ffffff" />
<rect x="32" y="51" width="1" height="1" fill="#ffffff" />
<rect x="33" y="51" width="1" height="1" fill="#ffffff" />
<rect x="34" y="51" width="1" height="1" fill="#ffffff" />
<rect x="35" y="51" width="1" height="1" fill="#ffffff" />
<rect x="28" y="52" width="1" height="1" fill="#ffffff" />
<rect x="29" y="52" width="1" height="1" fill="#ffffff" />
<rect x="30" y="52" width="1" height="1" fill="#ffffff" />
<rect x="31" y="52" width="1" height="1" fill="#ffffff" />
<rect x="32" y="52" width="1" height="1" fill="#ffffff" />
<rect x="33" y="52" width="1" height="1" fill="#ffffff" />
<rect x="34" y="52" width="1" height="1" fill="#ffffff" />
<rect x="35" y="52" width="1" height="1" fill="#ffffff" />
<rect x="28" y="53" width="1" height="1" fill="#ffffff" />
<rect x="29" y="53" width="1" height="1" fill="#ffffff" />
<rect x="30" y="53" width="1" height="1" fill="#ffffff" />
<rect x="31" y="53" width="1" height="1" fill="#ffffff" />
<rect x="32" y="53" width="1" height="1" fill="#ffffff" />
<rect x="33" y="53" width="1" height="1" fill="#ffffff" />
<rect x="34" y="53" width="1" height="1" fill="#ffffff" />
<rect x="35" y="53" width="1" height="1" fill="#ffffff" />
<rect x="28" y="54" width="1" height="1" fill="#ffffff" />
<rect x="29" y="54" width="1" height="1" fill="#ffffff" />
<rect x="30" y="54" width="1" height="1" fill="#ffffff" />
<rect x="31" y="54" width="1" height="1" fill="#ffffff" />
<rect x="32" y="54" width="1" height="1" fill="#ffffff" />
<rect x="33" y="54" width="1" height="1" fill="#ffffff" />
<rect x="34" y="54" width="1" height="1" fill="#ffffff" />
<rect x="35" y="54" width="1" height="1" fill="#ffffff" />
<rect x="28" y="55" width="1" height="1" fill="#ffffff" />
<rect x="29" y="55" width="1" height="1" fill="#ffffff" />
<rect x="30" y="55" width="1" height="1" fill="#ffffff" />
<rect x="31" y="55" width="1" height="1" fill="#ffffff" />
<rect x="32" y="55" width="1" height="1" fill="#ffffff" />
<rect x="33" y="55" width="1" height="1" fill="#ffffff" />
<rect x="34" y="55" width="1" height="1" fill="#ffffff" />
<rect x="35" y="55" width="1" height="1" fill="#ffffff" />
</svg>