<?xml version="1.0" encoding="UTF-8"?>
<svg version="1.1" xmlns="http://www.w3.org/2000/svg" width="512" height="512">
<path d="M0 0 C95.04 0 190.08 0 288 0 C288 10.56 288 21.12 288 32 C298.56 32 309.12 32 320 32 C320 53.12 320 74.24 320 96 C330.56 96 341.12 96 352 96 C352 180.48 352 264.96 352 352 C341.44 352 330.88 352 320 352 C320 362.56 320 373.12 320 384 C203.84 384 87.68 384 -32 384 C-32 373.44 -32 362.88 -32 352 C-42.56 352 -53.12 352 -64 352 C-64 267.52 -64 183.04 -64 96 C-53.44 96 -42.88 96 -32 96 C-32 74.88 -32 53.76 -32 32 C-21.44 32 -10.88 32 0 32 C0 21.44 0 10.88 0 0 Z " fill="#464F53" transform="translate(112,64)"/>
<path d="M0 0 C95.04 0 190.08 0 288 0 C288 10.56 288 21.12 288 32 C298.56 32 309.12 32 320 32 C320 53.12 320 74.24 320 96 C330.56 96 341.12 96 352 96 C352 180.48 352 264.96 352 352 C330.88 352 309.76 352 288 352 C288 320.32 288 288.64 288 256 C266.88 256 245.76 256 224 256 C224 245.44 224 234.88 224 224 C234.56 224 245.12 224 256 224 C256 171.2 256 118.4 256 64 C234.88 64 213.76 64 192 64 C192 106.24 192 148.48 192 192 C181.44 192 170.88 192 160 192 C160 202.56 160 213.12 160 224 C138.88 224 117.76 224 96 224 C96 171.2 96 118.4 96 64 C74.88 64 53.76 64 32 64 C32 74.56 32 85.12 32 96 C21.44 96 10.88 96 0 96 C0 64.32 0 32.64 0 0 Z " fill="#4D575B" transform="translate(112,64)"/>
<path d="M0 0 C95.04 0 190.08 0 288 0 C288 31.68 288 63.36 288 96 C298.56 96 309.12 96 320 96 C320 106.56 320 117.12 320 128 C203.84 128 87.68 128 -32 128 C-32 117.44 -32 106.88 -32 96 C-21.44 96 -10.88 96 0 96 C0 64.32 0 32.64 0 0 Z " fill="#394046" transform="translate(112,320)"/>
<path d="M0 0 C21.12 0 42.24 0 64 0 C64 10.56 64 21.12 64 32 C74.56 32 85.12 32 96 32 C96 63.68 96 95.36 96 128 C85.44 128 74.88 128 64 128 C64 138.56 64 149.12 64 160 C42.88 160 21.76 160 0 160 C0 107.2 0 54.4 0 0 Z " fill="#FFFFFF" transform="translate(208,128)"/>
<path d="M0 0 C116.16 0 232.32 0 352 0 C352 10.56 352 21.12 352 32 C235.84 32 119.68 32 0 32 C0 21.44 0 10.88 0 0 Z " fill="#282828" transform="translate(80,416)"/>
<path d="M0 0 C21.12 0 42.24 0 64 0 C64 52.8 64 105.6 64 160 C42.88 160 21.76 160 0 160 C0 107.2 0 54.4 0 0 Z " fill="#394046" transform="translate(144,128)"/>
<path d="M0 0 C95.04 0 190.08 0 288 0 C288 10.56 288 21.12 288 32 C192.96 32 97.92 32 0 32 C0 21.44 0 10.88 0 0 Z " fill="#282828" transform="translate(112,64)"/>
<path d="M0 0 C10.56 0 21.12 0 32 0 C32 84.48 32 168.96 32 256 C21.44 256 10.88 256 0 256 C0 171.52 0 87.04 0 0 Z " fill="#282828" transform="translate(432,160)"/>
<path d="M0 0 C10.56 0 21.12 0 32 0 C32 84.48 32 168.96 32 256 C21.44 256 10.88 256 0 256 C0 171.52 0 87.04 0 0 Z " fill="#282828" transform="translate(48,160)"/>
<path d="M0 0 C10.56 0 21.12 0 32 0 C32 21.12 32 42.24 32 64 C10.88 64 -10.24 64 -32 64 C-32 53.44 -32 42.88 -32 32 C-21.44 32 -10.88 32 0 32 C0 21.44 0 10.88 0 0 Z " fill="#6B7C84" transform="translate(368,256)"/>
<path d="M0 0 C10.56 0 21.12 0 32 0 C32 31.68 32 63.36 32 96 C21.44 96 10.88 96 0 96 C0 64.32 0 32.64 0 0 Z " fill="#FFFFFF" transform="translate(272,160)"/>
<path d="M0 0 C10.56 0 21.12 0 32 0 C32 31.68 32 63.36 32 96 C21.44 96 10.88 96 0 96 C0 64.32 0 32.64 0 0 Z " fill="#394046" transform="translate(240,160)"/>
<path d="M0 0 C21.12 0 42.24 0 64 0 C64 10.56 64 21.12 64 32 C53.44 32 42.88 32 32 32 C32 42.56 32 53.12 32 64 C21.44 64 10.88 64 0 64 C0 42.88 0 21.76 0 0 Z " fill="#6B7C84" transform="translate(112,96)"/>
<path d="M0 0 C10.56 0 21.12 0 32 0 C32 21.12 32 42.24 32 64 C21.44 64 10.88 64 0 64 C0 42.88 0 21.76 0 0 Z " fill="#282828" transform="translate(400,96)"/>
<path d="M0 0 C10.56 0 21.12 0 32 0 C32 21.12 32 42.24 32 64 C21.44 64 10.88 64 0 64 C0 42.88 0 21.76 0 0 Z " fill="#282828" transform="translate(80,96)"/>
<path d="M0 0 C10.56 0 21.12 0 32 0 C32 10.56 32 21.12 32 32 C21.44 32 10.88 32 0 32 C0 21.44 0 10.88 0 0 Z " fill="#6B7C84" transform="translate(272,256)"/>
<path d="M0 0 C10.56 0 21.12 0 32 0 C32 10.56 32 21.12 32 32 C21.44 32 10.88 32 0 32 C0 21.44 0 10.88 0 0 Z " fill="#6B7C84" transform="translate(272,128)"/>
</svg>
