
<svg xmlns="http://www.w3.org/2000/svg" width="32" height="16" shape-rendering="crispEdges">
<rect x="4" y="2" width="1" height="1" fill="#282828" />
<rect x="5" y="2" width="1" height="1" fill="#282828" />
<rect x="6" y="2" width="1" height="1" fill="#282828" />
<rect x="7" y="2" width="1" height="1" fill="#282828" />
<rect x="8" y="2" width="1" height="1" fill="#282828" />
<rect x="9" y="2" width="1" height="1" fill="#282828" />
<rect x="10" y="2" width="1" height="1" fill="#282828" />
<rect x="11" y="2" width="1" height="1" fill="#282828" />
<rect x="12" y="2" width="1" height="1" fill="#282828" />
<rect x="13" y="2" width="1" height="1" fill="#282828" />
<rect x="14" y="2" width="1" height="1" fill="#282828" />
<rect x="15" y="2" width="1" height="1" fill="#282828" />
<rect x="16" y="2" width="1" height="1" fill="#282828" />
<rect x="17" y="2" width="1" height="1" fill="#282828" />
<rect x="18" y="2" width="1" height="1" fill="#282828" />
<rect x="19" y="2" width="1" height="1" fill="#282828" />
<rect x="20" y="2" width="1" height="1" fill="#282828" />
<rect x="21" y="2" width="1" height="1" fill="#282828" />
<rect x="22" y="2" width="1" height="1" fill="#282828" />
<rect x="23" y="2" width="1" height="1" fill="#282828" />
<rect x="24" y="2" width="1" height="1" fill="#282828" />
<rect x="25" y="2" width="1" height="1" fill="#282828" />
<rect x="26" y="2" width="1" height="1" fill="#282828" />
<rect x="27" y="2" width="1" height="1" fill="#282828" />
<rect x="3" y="3" width="1" height="1" fill="#282828" />
<rect x="4" y="3" width="1" height="1" fill="#6b7c84" />
<rect x="5" y="3" width="1" height="1" fill="#6b7c84" />
<rect x="6" y="3" width="1" height="1" fill="#4d575b" />
<rect x="7" y="3" width="1" height="1" fill="#4d575b" />
<rect x="8" y="3" width="1" height="1" fill="#4d575b" />
<rect x="9" y="3" width="1" height="1" fill="#4d575b" />
<rect x="10" y="3" width="1" height="1" fill="#4d575b" />
<rect x="11" y="3" width="1" height="1" fill="#4d575b" />
<rect x="12" y="3" width="1" height="1" fill="#4d575b" />
<rect x="13" y="3" width="1" height="1" fill="#4d575b" />
<rect x="14" y="3" width="1" height="1" fill="#4d575b" />
<rect x="15" y="3" width="1" height="1" fill="#4d575b" />
<rect x="16" y="3" width="1" height="1" fill="#4d575b" />
<rect x="17" y="3" width="1" height="1" fill="#4d575b" />
<rect x="18" y="3" width="1" height="1" fill="#4d575b" />
<rect x="19" y="3" width="1" height="1" fill="#4d575b" />
<rect x="20" y="3" width="1" height="1" fill="#4d575b" />
<rect x="21" y="3" width="1" height="1" fill="#4d575b" />
<rect x="22" y="3" width="1" height="1" fill="#4d575b" />
<rect x="23" y="3" width="1" height="1" fill="#4d575b" />
<rect x="24" y="3" width="1" height="1" fill="#4d575b" />
<rect x="25" y="3" width="1" height="1" fill="#4d575b" />
<rect x="26" y="3" width="1" height="1" fill="#4d575b" />
<rect x="27" y="3" width="1" height="1" fill="#4d575b" />
<rect x="28" y="3" width="1" height="1" fill="#282828" />
<rect x="3" y="4" width="1" height="1" fill="#282828" />
<rect x="4" y="4" width="1" height="1" fill="#6b7c84" />
<rect x="5" y="4" width="1" height="1" fill="#394046" />
<rect x="6" y="4" width="1" height="1" fill="#394046" />
<rect x="7" y="4" width="1" height="1" fill="#ffffff" />
<rect x="8" y="4" width="1" height="1" fill="#394046" />
<rect x="9" y="4" width="1" height="1" fill="#394046" />
<rect x="10" y="4" width="1" height="1" fill="#394046" />
<rect x="11" y="4" width="1" height="1" fill="#ffffff" />
<rect x="12" y="4" width="1" height="1" fill="#ffffff" />
<rect x="13" y="4" width="1" height="1" fill="#394046" />
<rect x="14" y="4" width="1" height="1" fill="#394046" />
<rect x="15" y="4" width="1" height="1" fill="#ffffff" />
<rect x="16" y="4" width="1" height="1" fill="#ffffff" />
<rect x="17" y="4" width="1" height="1" fill="#ffffff" />
<rect x="18" y="4" width="1" height="1" fill="#394046" />
<rect x="19" y="4" width="1" height="1" fill="#ffffff" />
<rect x="20" y="4" width="1" height="1" fill="#ffffff" />
<rect x="21" y="4" width="1" height="1" fill="#ffffff" />
<rect x="22" y="4" width="1" height="1" fill="#394046" />
<rect x="23" y="4" width="1" height="1" fill="#ffffff" />
<rect x="24" y="4" width="1" height="1" fill="#394046" />
<rect x="25" y="4" width="1" height="1" fill="#ffffff" />
<rect x="26" y="4" width="1" height="1" fill="#394046" />
<rect x="27" y="4" width="1" height="1" fill="#4d575b" />
<rect x="28" y="4" width="1" height="1" fill="#282828" />
<rect x="2" y="5" width="1" height="1" fill="#282828" />
<rect x="3" y="5" width="1" height="1" fill="#4d575b" />
<rect x="4" y="5" width="1" height="1" fill="#4d575b" />
<rect x="5" y="5" width="1" height="1" fill="#394046" />
<rect x="6" y="5" width="1" height="1" fill="#ffffff" />
<rect x="7" y="5" width="1" height="1" fill="#394046" />
<rect x="8" y="5" width="1" height="1" fill="#394046" />
<rect x="9" y="5" width="1" height="1" fill="#394046" />
<rect x="10" y="5" width="1" height="1" fill="#394046" />
<rect x="11" y="5" width="1" height="1" fill="#ffffff" />
<rect x="12" y="5" width="1" height="1" fill="#394046" />
<rect x="13" y="5" width="1" height="1" fill="#ffffff" />
<rect x="14" y="5" width="1" height="1" fill="#394046" />
<rect x="15" y="5" width="1" height="1" fill="#ffffff" />
<rect x="16" y="5" width="1" height="1" fill="#394046" />
<rect x="17" y="5" width="1" height="1" fill="#ffffff" />
<rect x="18" y="5" width="1" height="1" fill="#394046" />
<rect x="19" y="5" width="1" height="1" fill="#ffffff" />
<rect x="20" y="5" width="1" height="1" fill="#394046" />
<rect x="21" y="5" width="1" height="1" fill="#394046" />
<rect x="22" y="5" width="1" height="1" fill="#394046" />
<rect x="23" y="5" width="1" height="1" fill="#ffffff" />
<rect x="24" y="5" width="1" height="1" fill="#394046" />
<rect x="25" y="5" width="1" height="1" fill="#ffffff" />
<rect x="26" y="5" width="1" height="1" fill="#394046" />
<rect x="27" y="5" width="1" height="1" fill="#4d575b" />
<rect x="28" y="5" width="1" height="1" fill="#4d575b" />
<rect x="29" y="5" width="1" height="1" fill="#282828" />
<rect x="2" y="6" width="1" height="1" fill="#282828" />
<rect x="3" y="6" width="1" height="1" fill="#4d575b" />
<rect x="4" y="6" width="1" height="1" fill="#4d575b" />
<rect x="5" y="6" width="1" height="1" fill="#ffffff" />
<rect x="6" y="6" width="1" height="1" fill="#ffffff" />
<rect x="7" y="6" width="1" height="1" fill="#ffffff" />
<rect x="8" y="6" width="1" height="1" fill="#ffffff" />
<rect x="9" y="6" width="1" height="1" fill="#ffffff" />
<rect x="10" y="6" width="1" height="1" fill="#394046" />
<rect x="11" y="6" width="1" height="1" fill="#ffffff" />
<rect x="12" y="6" width="1" height="1" fill="#ffffff" />
<rect x="13" y="6" width="1" height="1" fill="#394046" />
<rect x="14" y="6" width="1" height="1" fill="#394046" />
<rect x="15" y="6" width="1" height="1" fill="#ffffff" />
<rect x="16" y="6" width="1" height="1" fill="#ffffff" />
<rect x="17" y="6" width="1" height="1" fill="#ffffff" />
<rect x="18" y="6" width="1" height="1" fill="#394046" />
<rect x="19" y="6" width="1" height="1" fill="#ffffff" />
<rect x="20" y="6" width="1" height="1" fill="#394046" />
<rect x="21" y="6" width="1" height="1" fill="#394046" />
<rect x="22" y="6" width="1" height="1" fill="#394046" />
<rect x="23" y="6" width="1" height="1" fill="#ffffff" />
<rect x="24" y="6" width="1" height="1" fill="#ffffff" />
<rect x="25" y="6" width="1" height="1" fill="#394046" />
<rect x="26" y="6" width="1" height="1" fill="#394046" />
<rect x="27" y="6" width="1" height="1" fill="#4d575b" />
<rect x="28" y="6" width="1" height="1" fill="#4d575b" />
<rect x="29" y="6" width="1" height="1" fill="#282828" />
<rect x="2" y="7" width="1" height="1" fill="#282828" />
<rect x="3" y="7" width="1" height="1" fill="#4d575b" />
<rect x="4" y="7" width="1" height="1" fill="#4d575b" />
<rect x="5" y="7" width="1" height="1" fill="#394046" />
<rect x="6" y="7" width="1" height="1" fill="#ffffff" />
<rect x="7" y="7" width="1" height="1" fill="#394046" />
<rect x="8" y="7" width="1" height="1" fill="#394046" />
<rect x="9" y="7" width="1" height="1" fill="#394046" />
<rect x="10" y="7" width="1" height="1" fill="#394046" />
<rect x="11" y="7" width="1" height="1" fill="#ffffff" />
<rect x="12" y="7" width="1" height="1" fill="#394046" />
<rect x="13" y="7" width="1" height="1" fill="#ffffff" />
<rect x="14" y="7" width="1" height="1" fill="#394046" />
<rect x="15" y="7" width="1" height="1" fill="#ffffff" />
<rect x="16" y="7" width="1" height="1" fill="#394046" />
<rect x="17" y="7" width="1" height="1" fill="#ffffff" />
<rect x="18" y="7" width="1" height="1" fill="#394046" />
<rect x="19" y="7" width="1" height="1" fill="#ffffff" />
<rect x="20" y="7" width="1" height="1" fill="#394046" />
<rect x="21" y="7" width="1" height="1" fill="#394046" />
<rect x="22" y="7" width="1" height="1" fill="#394046" />
<rect x="23" y="7" width="1" height="1" fill="#ffffff" />
<rect x="24" y="7" width="1" height="1" fill="#394046" />
<rect x="25" y="7" width="1" height="1" fill="#ffffff" />
<rect x="26" y="7" width="1" height="1" fill="#394046" />
<rect x="27" y="7" width="1" height="1" fill="#4d575b" />
<rect x="28" y="7" width="1" height="1" fill="#4d575b" />
<rect x="29" y="7" width="1" height="1" fill="#282828" />
<rect x="2" y="8" width="1" height="1" fill="#282828" />
<rect x="3" y="8" width="1" height="1" fill="#4d575b" />
<rect x="4" y="8" width="1" height="1" fill="#4d575b" />
<rect x="5" y="8" width="1" height="1" fill="#394046" />
<rect x="6" y="8" width="1" height="1" fill="#394046" />
<rect x="7" y="8" width="1" height="1" fill="#ffffff" />
<rect x="8" y="8" width="1" height="1" fill="#394046" />
<rect x="9" y="8" width="1" height="1" fill="#394046" />
<rect x="10" y="8" width="1" height="1" fill="#394046" />
<rect x="11" y="8" width="1" height="1" fill="#ffffff" />
<rect x="12" y="8" width="1" height="1" fill="#ffffff" />
<rect x="13" y="8" width="1" height="1" fill="#394046" />
<rect x="14" y="8" width="1" height="1" fill="#394046" />
<rect x="15" y="8" width="1" height="1" fill="#ffffff" />
<rect x="16" y="8" width="1" height="1" fill="#394046" />
<rect x="17" y="8" width="1" height="1" fill="#ffffff" />
<rect x="18" y="8" width="1" height="1" fill="#394046" />
<rect x="19" y="8" width="1" height="1" fill="#ffffff" />
<rect x="20" y="8" width="1" height="1" fill="#ffffff" />
<rect x="21" y="8" width="1" height="1" fill="#ffffff" />
<rect x="22" y="8" width="1" height="1" fill="#394046" />
<rect x="23" y="8" width="1" height="1" fill="#ffffff" />
<rect x="24" y="8" width="1" height="1" fill="#394046" />
<rect x="25" y="8" width="1" height="1" fill="#ffffff" />
<rect x="26" y="8" width="1" height="1" fill="#394046" />
<rect x="27" y="8" width="1" height="1" fill="#6b7c84" />
<rect x="28" y="8" width="1" height="1" fill="#4d575b" />
<rect x="29" y="8" width="1" height="1" fill="#282828" />
<rect x="2" y="9" width="1" height="1" fill="#282828" />
<rect x="3" y="9" width="1" height="1" fill="#4d575b" />
<rect x="4" y="9" width="1" height="1" fill="#4d575b" />
<rect x="5" y="9" width="1" height="1" fill="#4d575b" />
<rect x="6" y="9" width="1" height="1" fill="#4d575b" />
<rect x="7" y="9" width="1" height="1" fill="#4d575b" />
<rect x="8" y="9" width="1" height="1" fill="#4d575b" />
<rect x="9" y="9" width="1" height="1" fill="#4d575b" />
<rect x="10" y="9" width="1" height="1" fill="#4d575b" />
<rect x="11" y="9" width="1" height="1" fill="#4d575b" />
<rect x="12" y="9" width="1" height="1" fill="#4d575b" />
<rect x="13" y="9" width="1" height="1" fill="#4d575b" />
<rect x="14" y="9" width="1" height="1" fill="#4d575b" />
<rect x="15" y="9" width="1" height="1" fill="#4d575b" />
<rect x="16" y="9" width="1" height="1" fill="#4d575b" />
<rect x="17" y="9" width="1" height="1" fill="#4d575b" />
<rect x="18" y="9" width="1" height="1" fill="#4d575b" />
<rect x="19" y="9" width="1" height="1" fill="#4d575b" />
<rect x="20" y="9" width="1" height="1" fill="#4d575b" />
<rect x="21" y="9" width="1" height="1" fill="#4d575b" />
<rect x="22" y="9" width="1" height="1" fill="#4d575b" />
<rect x="23" y="9" width="1" height="1" fill="#4d575b" />
<rect x="24" y="9" width="1" height="1" fill="#4d575b" />
<rect x="25" y="9" width="1" height="1" fill="#4d575b" />
<rect x="26" y="9" width="1" height="1" fill="#6b7c84" />
<rect x="27" y="9" width="1" height="1" fill="#6b7c84" />
<rect x="28" y="9" width="1" height="1" fill="#4d575b" />
<rect x="29" y="9" width="1" height="1" fill="#282828" />
<rect x="2" y="10" width="1" height="1" fill="#282828" />
<rect x="3" y="10" width="1" height="1" fill="#4d575b" />
<rect x="4" y="10" width="1" height="1" fill="#394046" />
<rect x="5" y="10" width="1" height="1" fill="#394046" />
<rect x="6" y="10" width="1" height="1" fill="#394046" />
<rect x="7" y="10" width="1" height="1" fill="#394046" />
<rect x="8" y="10" width="1" height="1" fill="#394046" />
<rect x="9" y="10" width="1" height="1" fill="#394046" />
<rect x="10" y="10" width="1" height="1" fill="#394046" />
<rect x="11" y="10" width="1" height="1" fill="#394046" />
<rect x="12" y="10" width="1" height="1" fill="#394046" />
<rect x="13" y="10" width="1" height="1" fill="#394046" />
<rect x="14" y="10" width="1" height="1" fill="#394046" />
<rect x="15" y="10" width="1" height="1" fill="#394046" />
<rect x="16" y="10" width="1" height="1" fill="#394046" />
<rect x="17" y="10" width="1" height="1" fill="#394046" />
<rect x="18" y="10" width="1" height="1" fill="#394046" />
<rect x="19" y="10" width="1" height="1" fill="#394046" />
<rect x="20" y="10" width="1" height="1" fill="#394046" />
<rect x="21" y="10" width="1" height="1" fill="#394046" />
<rect x="22" y="10" width="1" height="1" fill="#394046" />
<rect x="23" y="10" width="1" height="1" fill="#394046" />
<rect x="24" y="10" width="1" height="1" fill="#394046" />
<rect x="25" y="10" width="1" height="1" fill="#394046" />
<rect x="26" y="10" width="1" height="1" fill="#394046" />
<rect x="27" y="10" width="1" height="1" fill="#394046" />
<rect x="28" y="10" width="1" height="1" fill="#4d575b" />
<rect x="29" y="10" width="1" height="1" fill="#282828" />
<rect x="2" y="11" width="1" height="1" fill="#282828" />
<rect x="3" y="11" width="1" height="1" fill="#4d575b" />
<rect x="4" y="11" width="1" height="1" fill="#394046" />
<rect x="5" y="11" width="1" height="1" fill="#394046" />
<rect x="6" y="11" width="1" height="1" fill="#394046" />
<rect x="7" y="11" width="1" height="1" fill="#394046" />
<rect x="8" y="11" width="1" height="1" fill="#394046" />
<rect x="9" y="11" width="1" height="1" fill="#394046" />
<rect x="10" y="11" width="1" height="1" fill="#394046" />
<rect x="11" y="11" width="1" height="1" fill="#394046" />
<rect x="12" y="11" width="1" height="1" fill="#394046" />
<rect x="13" y="11" width="1" height="1" fill="#394046" />
<rect x="14" y="11" width="1" height="1" fill="#394046" />
<rect x="15" y="11" width="1" height="1" fill="#394046" />
<rect x="16" y="11" width="1" height="1" fill="#394046" />
<rect x="17" y="11" width="1" height="1" fill="#394046" />
<rect x="18" y="11" width="1" height="1" fill="#394046" />
<rect x="19" y="11" width="1" height="1" fill="#394046" />
<rect x="20" y="11" width="1" height="1" fill="#394046" />
<rect x="21" y="11" width="1" height="1" fill="#394046" />
<rect x="22" y="11" width="1" height="1" fill="#394046" />
<rect x="23" y="11" width="1" height="1" fill="#394046" />
<rect x="24" y="11" width="1" height="1" fill="#394046" />
<rect x="25" y="11" width="1" height="1" fill="#394046" />
<rect x="26" y="11" width="1" height="1" fill="#394046" />
<rect x="27" y="11" width="1" height="1" fill="#394046" />
<rect x="28" y="11" width="1" height="1" fill="#4d575b" />
<rect x="29" y="11" width="1" height="1" fill="#282828" />
<rect x="2" y="12" width="1" height="1" fill="#282828" />
<rect x="3" y="12" width="1" height="1" fill="#4d575b" />
<rect x="4" y="12" width="1" height="1" fill="#394046" />
<rect x="5" y="12" width="1" height="1" fill="#394046" />
<rect x="6" y="12" width="1" height="1" fill="#394046" />
<rect x="7" y="12" width="1" height="1" fill="#394046" />
<rect x="8" y="12" width="1" height="1" fill="#394046" />
<rect x="9" y="12" width="1" height="1" fill="#394046" />
<rect x="10" y="12" width="1" height="1" fill="#394046" />
<rect x="11" y="12" width="1" height="1" fill="#394046" />
<rect x="12" y="12" width="1" height="1" fill="#394046" />
<rect x="13" y="12" width="1" height="1" fill="#394046" />
<rect x="14" y="12" width="1" height="1" fill="#394046" />
<rect x="15" y="12" width="1" height="1" fill="#394046" />
<rect x="16" y="12" width="1" height="1" fill="#394046" />
<rect x="17" y="12" width="1" height="1" fill="#394046" />
<rect x="18" y="12" width="1" height="1" fill="#394046" />
<rect x="19" y="12" width="1" height="1" fill="#394046" />
<rect x="20" y="12" width="1" height="1" fill="#394046" />
<rect x="21" y="12" width="1" height="1" fill="#394046" />
<rect x="22" y="12" width="1" height="1" fill="#394046" />
<rect x="23" y="12" width="1" height="1" fill="#394046" />
<rect x="24" y="12" width="1" height="1" fill="#394046" />
<rect x="25" y="12" width="1" height="1" fill="#394046" />
<rect x="26" y="12" width="1" height="1" fill="#394046" />
<rect x="27" y="12" width="1" height="1" fill="#394046" />
<rect x="28" y="12" width="1" height="1" fill="#4d575b" />
<rect x="29" y="12" width="1" height="1" fill="#282828" />
<rect x="3" y="13" width="1" height="1" fill="#282828" />
<rect x="4" y="13" width="1" height="1" fill="#282828" />
<rect x="5" y="13" width="1" height="1" fill="#282828" />
<rect x="6" y="13" width="1" height="1" fill="#282828" />
<rect x="7" y="13" width="1" height="1" fill="#282828" />
<rect x="8" y="13" width="1" height="1" fill="#282828" />
<rect x="9" y="13" width="1" height="1" fill="#282828" />
<rect x="10" y="13" width="1" height="1" fill="#282828" />
<rect x="11" y="13" width="1" height="1" fill="#282828" />
<rect x="12" y="13" width="1" height="1" fill="#282828" />
<rect x="13" y="13" width="1" height="1" fill="#282828" />
<rect x="14" y="13" width="1" height="1" fill="#282828" />
<rect x="15" y="13" width="1" height="1" fill="#282828" />
<rect x="16" y="13" width="1" height="1" fill="#282828" />
<rect x="17" y="13" width="1" height="1" fill="#282828" />
<rect x="18" y="13" width="1" height="1" fill="#282828" />
<rect x="19" y="13" width="1" height="1" fill="#282828" />
<rect x="20" y="13" width="1" height="1" fill="#282828" />
<rect x="21" y="13" width="1" height="1" fill="#282828" />
<rect x="22" y="13" width="1" height="1" fill="#282828" />
<rect x="23" y="13" width="1" height="1" fill="#282828" />
<rect x="24" y="13" width="1" height="1" fill="#282828" />
<rect x="25" y="13" width="1" height="1" fill="#282828" />
<rect x="26" y="13" width="1" height="1" fill="#282828" />
<rect x="27" y="13" width="1" height="1" fill="#282828" />
<rect x="28" y="13" width="1" height="1" fill="#282828" />
</svg>