<?xml version="1.0" encoding="UTF-8"?>
<svg version="1.1" xmlns="http://www.w3.org/2000/svg" width="500" height="500">
<path d="M0 0 C92.73 0 185.46 0 281 0 C281 10.56 281 21.12 281 32 C291.23 32 301.46 32 312 32 C312 52.46 312 72.92 312 94 C322.23 94 332.46 94 343 94 C343 176.5 343 259 343 344 C332.77 344 322.54 344 312 344 C312 354.23 312 364.46 312 375 C198.48 375 84.96 375 -32 375 C-32 364.77 -32 354.54 -32 344 C-42.23 344 -52.46 344 -63 344 C-63 261.5 -63 179 -63 94 C-52.77 94 -42.54 94 -32 94 C-32 73.54 -32 53.08 -32 32 C-21.44 32 -10.88 32 0 32 C0 21.44 0 10.88 0 0 Z " fill="#414A4F" transform="translate(94,62)"/>
<path d="M0 0 C92.73 0 185.46 0 281 0 C281 10.56 281 21.12 281 32 C291.23 32 301.46 32 312 32 C312 52.46 312 72.92 312 94 C322.23 94 332.46 94 343 94 C343 176.5 343 259 343 344 C322.54 344 302.08 344 281 344 C281 312.98 281 281.96 281 250 C260.21 250 239.42 250 218 250 C218 239.77 218 229.54 218 219 C228.56 219 239.12 219 250 219 C250 167.52 250 116.04 250 63 C229.21 63 208.42 63 187 63 C187 73.23 187 83.46 187 94 C166.54 94 146.08 94 125 94 C125 125.02 125 156.04 125 188 C135.23 188 145.46 188 156 188 C156 167.21 156 146.42 156 125 C166.23 125 176.46 125 187 125 C187 156.02 187 187.04 187 219 C155.98 219 124.96 219 93 219 C93 167.52 93 116.04 93 63 C72.54 63 52.08 63 31 63 C31 73.23 31 83.46 31 94 C20.77 94 10.54 94 0 94 C0 62.98 0 31.96 0 0 Z " fill="#4D575B" transform="translate(94,62)"/>
<path d="M0 0 C92.73 0 185.46 0 281 0 C281 31.02 281 62.04 281 94 C291.23 94 301.46 94 312 94 C312 104.23 312 114.46 312 125 C198.48 125 84.96 125 -32 125 C-32 114.77 -32 104.54 -32 94 C-21.44 94 -10.88 94 0 94 C0 62.98 0 31.96 0 0 Z " fill="#394046" transform="translate(94,312)"/>
<path d="M0 0 C31.02 0 62.04 0 94 0 C94 10.23 94 20.46 94 31 C73.54 31 53.08 31 32 31 C32 62.02 32 93.04 32 125 C42.23 125 52.46 125 63 125 C63 104.21 63 83.42 63 62 C73.23 62 83.46 62 94 62 C94 93.02 94 124.04 94 156 C62.98 156 31.96 156 0 156 C0 104.52 0 53.04 0 0 Z " fill="#FFFFFF" transform="translate(187,125)"/>
<path d="M0 0 C113.52 0 227.04 0 344 0 C344 10.23 344 20.46 344 31 C230.48 31 116.96 31 0 31 C0 20.77 0 10.54 0 0 Z " fill="#282828" transform="translate(62,406)"/>
<path d="M0 0 C92.73 0 185.46 0 281 0 C281 10.56 281 21.12 281 32 C188.27 32 95.54 32 0 32 C0 21.44 0 10.88 0 0 Z " fill="#282828" transform="translate(94,62)"/>
<path d="M0 0 C10.23 0 20.46 0 31 0 C31 82.5 31 165 31 250 C20.77 250 10.54 250 0 250 C0 167.5 0 85 0 0 Z " fill="#282828" transform="translate(406,156)"/>
<path d="M0 0 C10.23 0 20.46 0 31 0 C31 82.5 31 165 31 250 C20.77 250 10.54 250 0 250 C0 167.5 0 85 0 0 Z " fill="#282828" transform="translate(31,156)"/>
<path d="M0 0 C10.23 0 20.46 0 31 0 C31 20.46 31 40.92 31 62 C10.21 62 -10.58 62 -32 62 C-32 51.77 -32 41.54 -32 31 C-21.44 31 -10.88 31 0 31 C0 20.77 0 10.54 0 0 Z " fill="#6B7C84" transform="translate(344,250)"/>
<path d="M0 0 C20.46 0 40.92 0 62 0 C62 10.23 62 20.46 62 31 C51.77 31 41.54 31 31 31 C31 41.23 31 51.46 31 62 C20.77 62 10.54 62 0 62 C0 41.54 0 21.08 0 0 Z " fill="#6B7C84" transform="translate(94,94)"/>
<path d="M0 0 C10.56 0 21.12 0 32 0 C32 20.46 32 40.92 32 62 C21.44 62 10.88 62 0 62 C0 41.54 0 21.08 0 0 Z " fill="#282828" transform="translate(62,94)"/>
<path d="M0 0 C10.23 0 20.46 0 31 0 C31 20.46 31 40.92 31 62 C20.77 62 10.54 62 0 62 C0 41.54 0 21.08 0 0 Z " fill="#282828" transform="translate(375,94)"/>
</svg>
