<?xml version="1.0" encoding="UTF-8"?>
<svg version="1.1" xmlns="http://www.w3.org/2000/svg" width="512" height="512">
<path d="M0 0 C95.04 0 190.08 0 288 0 C288 10.56 288 21.12 288 32 C298.56 32 309.12 32 320 32 C320 53.12 320 74.24 320 96 C330.56 96 341.12 96 352 96 C352 180.48 352 264.96 352 352 C341.44 352 330.88 352 320 352 C320 362.56 320 373.12 320 384 C203.84 384 87.68 384 -32 384 C-32 373.44 -32 362.88 -32 352 C-42.56 352 -53.12 352 -64 352 C-64 267.52 -64 183.04 -64 96 C-53.44 96 -42.88 96 -32 96 C-32 74.88 -32 53.76 -32 32 C-21.44 32 -10.88 32 0 32 C0 21.44 0 10.88 0 0 Z " fill="#4D575B" transform="translate(112,64)"/>
<path d="M0 0 C10.56 0 21.12 0 32 0 C32 21.12 32 42.24 32 64 C42.56 64 53.12 64 64 64 C64 53.44 64 42.88 64 32 C95.68 32 127.36 32 160 32 C160 53.12 160 74.24 160 96 C191.68 96 223.36 96 256 96 C256 106.56 256 117.12 256 128 C224.32 128 192.64 128 160 128 C160 138.56 160 149.12 160 160 C170.56 160 181.12 160 192 160 C192 170.56 192 181.12 192 192 C213.12 192 234.24 192 256 192 C256 202.56 256 213.12 256 224 C182.08 224 108.16 224 32 224 C32 255.68 32 287.36 32 320 C10.88 320 -10.24 320 -32 320 C-32 235.52 -32 151.04 -32 64 C-21.44 64 -10.88 64 0 64 C0 42.88 0 21.76 0 0 Z " fill="#4D575B" transform="translate(80,96)"/>
<path d="M0 0 C95.04 0 190.08 0 288 0 C288 31.68 288 63.36 288 96 C298.56 96 309.12 96 320 96 C320 106.56 320 117.12 320 128 C203.84 128 87.68 128 -32 128 C-32 117.44 -32 106.88 -32 96 C-21.44 96 -10.88 96 0 96 C0 64.32 0 32.64 0 0 Z " fill="#394046" transform="translate(112,320)"/>
<path d="M0 0 C31.68 0 63.36 0 96 0 C96 21.12 96 42.24 96 64 C127.68 64 159.36 64 192 64 C192 74.56 192 85.12 192 96 C160.32 96 128.64 96 96 96 C96 117.12 96 138.24 96 160 C64.32 160 32.64 160 0 160 C0 107.2 0 54.4 0 0 Z " fill="#394046" transform="translate(144,128)"/>
<path d="M0 0 C31.68 0 63.36 0 96 0 C96 52.8 96 105.6 96 160 C64.32 160 32.64 160 0 160 C0 149.44 0 138.88 0 128 C-10.56 128 -21.12 128 -32 128 C-32 117.44 -32 106.88 -32 96 C-0.32 96 31.36 96 64 96 C64 85.44 64 74.88 64 64 C32.32 64 0.64 64 -32 64 C-32 53.44 -32 42.88 -32 32 C-21.44 32 -10.88 32 0 32 C0 21.44 0 10.88 0 0 Z " fill="#394046" transform="translate(272,128)"/>
<path d="M0 0 C116.16 0 232.32 0 352 0 C352 10.56 352 21.12 352 32 C235.84 32 119.68 32 0 32 C0 21.44 0 10.88 0 0 Z " fill="#282828" transform="translate(80,416)"/>
<path d="M0 0 C95.04 0 190.08 0 288 0 C288 10.56 288 21.12 288 32 C192.96 32 97.92 32 0 32 C0 21.44 0 10.88 0 0 Z " fill="#282828" transform="translate(112,64)"/>
<path d="M0 0 C10.56 0 21.12 0 32 0 C32 84.48 32 168.96 32 256 C21.44 256 10.88 256 0 256 C0 171.52 0 87.04 0 0 Z " fill="#282828" transform="translate(432,160)"/>
<path d="M0 0 C10.56 0 21.12 0 32 0 C32 84.48 32 168.96 32 256 C21.44 256 10.88 256 0 256 C0 171.52 0 87.04 0 0 Z " fill="#282828" transform="translate(48,160)"/>
<path d="M0 0 C10.56 0 21.12 0 32 0 C32 10.56 32 21.12 32 32 C63.68 32 95.36 32 128 32 C128 42.56 128 53.12 128 64 C96.32 64 64.64 64 32 64 C32 74.56 32 85.12 32 96 C21.44 96 10.88 96 0 96 C0 85.44 0 74.88 0 64 C-10.56 64 -21.12 64 -32 64 C-32 53.44 -32 42.88 -32 32 C-21.44 32 -10.88 32 0 32 C0 21.44 0 10.88 0 0 Z " fill="#FFFFFF" transform="translate(208,160)"/>
<path d="M0 0 C10.56 0 21.12 0 32 0 C32 21.12 32 42.24 32 64 C10.88 64 -10.24 64 -32 64 C-32 53.44 -32 42.88 -32 32 C-21.44 32 -10.88 32 0 32 C0 21.44 0 10.88 0 0 Z " fill="#6B7C84" transform="translate(368,256)"/>
<path d="M0 0 C21.12 0 42.24 0 64 0 C64 10.56 64 21.12 64 32 C53.44 32 42.88 32 32 32 C32 42.56 32 53.12 32 64 C21.44 64 10.88 64 0 64 C0 42.88 0 21.76 0 0 Z " fill="#6B7C84" transform="translate(112,96)"/>
<path d="M0 0 C10.56 0 21.12 0 32 0 C32 21.12 32 42.24 32 64 C21.44 64 10.88 64 0 64 C0 42.88 0 21.76 0 0 Z " fill="#282828" transform="translate(400,96)"/>
<path d="M0 0 C10.56 0 21.12 0 32 0 C32 21.12 32 42.24 32 64 C21.44 64 10.88 64 0 64 C0 42.88 0 21.76 0 0 Z " fill="#282828" transform="translate(80,96)"/>
<path d="M0 0 C10.56 0 21.12 0 32 0 C32 10.56 32 21.12 32 32 C21.44 32 10.88 32 0 32 C0 21.44 0 10.88 0 0 Z " fill="#FFFFFF" transform="translate(240,256)"/>
<path d="M0 0 C10.56 0 21.12 0 32 0 C32 10.56 32 21.12 32 32 C21.44 32 10.88 32 0 32 C0 21.44 0 10.88 0 0 Z " fill="#FFFFFF" transform="translate(240,128)"/>
</svg>
